<svg width="35" height="47" viewBox="0 0 35 47" fill="none" xmlns="http://www.w3.org/2000/svg">
<g clip-path="url(#clip0_201_7017)">
<rect x="4" y="8" width="26" height="27" fill="white"/>
<path d="M0.174805 3.22083L3.28636 38.5089L17.2928 43.1628L31.2992 38.5089L34.4108 3.22083H0.174805ZM28.0896 10.3533L27.6617 14.5704L17.382 18.9658L17.3552 18.9747H27.2961L26.1549 32.045L17.3998 34.6038L8.59115 32.0005L8.02055 25.4118H12.3803L12.6656 28.8265L17.3552 30.0123L22.2321 28.6393L22.5619 23.1472L7.73525 23.1027V23.0937L7.71742 23.1027L7.39646 18.9747L17.3909 14.8111L17.9704 14.5704H7.01309L6.49598 10.3533H28.0896Z" fill="#31AADE"/>
</g>
<defs>
<clipPath id="clip0_201_7017">
<rect width="34.236" height="45.648" fill="white" transform="translate(0.174805 0.367798)"/>
</clipPath>
</defs>
</svg>
