<svg width="41" height="47" viewBox="0 0 41 47" fill="none" xmlns="http://www.w3.org/2000/svg">
<g clip-path="url(#clip0_201_6749)">
<rect x="5" y="9" width="33" height="34" fill="white"/>
<path d="M36.3146 3.33292H4.9316C2.56896 3.33292 0.6521 5.24978 0.6521 7.61242V38.9954C0.6521 41.3581 2.56896 43.2749 4.9316 43.2749H36.3146C38.6772 43.2749 40.5941 41.3581 40.5941 38.9954V7.61242C40.5941 5.24978 38.6772 3.33292 36.3146 3.33292ZM22.3884 34.4841C22.3884 38.3713 20.106 40.1455 16.7805 40.1455C13.7759 40.1455 12.0374 38.5942 11.1458 36.713L14.2038 34.8675C14.7923 35.9106 15.3272 36.7933 16.62 36.7933C17.8503 36.7933 18.6349 36.3118 18.6349 34.4306V21.6724H22.3884V34.4841ZM31.2683 40.1455C27.7823 40.1455 25.5267 38.4872 24.4301 36.3118L27.4881 34.5465C28.2905 35.8571 29.3426 36.8289 31.1881 36.8289C32.7394 36.8289 33.738 36.0533 33.738 34.9745C33.738 33.6906 32.7216 33.2359 31.0009 32.4781L30.0647 32.0769C27.3544 30.9268 25.5624 29.4735 25.5624 26.4155C25.5624 23.5981 27.711 21.4584 31.0544 21.4584C33.4438 21.4584 35.1556 22.2875 36.3859 24.4629L33.4616 26.3352C32.8197 25.1851 32.1242 24.7304 31.0455 24.7304C29.9488 24.7304 29.2534 25.4258 29.2534 26.3352C29.2534 27.4586 29.9488 27.9133 31.5626 28.6176L32.4987 29.0188C35.6905 30.3829 37.4825 31.7827 37.4825 34.921C37.4825 38.2911 34.8257 40.1455 31.2683 40.1455Z" fill="#F0DA4F"/>
</g>
<defs>
<clipPath id="clip0_201_6749">
<rect width="39.942" height="45.648" fill="white" transform="translate(0.651855 0.479919)"/>
</clipPath>
</defs>
</svg>
