<svg width="46" height="47" viewBox="0 0 46 47" fill="none" xmlns="http://www.w3.org/2000/svg">
<g clip-path="url(#clip0_201_6731)">
<path d="M45.2822 11.1589C45.2752 11.1381 45.2669 11.1179 45.2573 11.0982C45.2445 11.0599 45.2287 11.0226 45.21 10.9868C45.1956 10.9645 45.1795 10.9434 45.1619 10.9235C45.1423 10.8942 45.1208 10.8662 45.0977 10.8397C45.0772 10.8201 45.0513 10.804 45.029 10.7862C45.0036 10.7643 44.9768 10.744 44.9488 10.7256L36.3666 5.78453C36.2582 5.72193 36.1352 5.68897 36.01 5.68897C35.8848 5.68897 35.7618 5.72193 35.6534 5.78453L27.0694 10.7282C27.0418 10.7469 27.0156 10.7675 26.9909 10.7898C26.9666 10.8061 26.9434 10.824 26.9214 10.8433C26.898 10.8693 26.8766 10.897 26.8572 10.9262C26.842 10.9476 26.8224 10.9663 26.8091 10.9895C26.791 11.0255 26.7755 11.0627 26.7627 11.1009C26.7556 11.1214 26.744 11.1401 26.7377 11.1615C26.7214 11.222 26.713 11.2844 26.7128 11.347V20.7298L19.5606 24.8479V6.48797C19.5608 6.42502 19.5524 6.36233 19.5357 6.30164C19.5303 6.28024 19.5179 6.26152 19.5107 6.24101C19.4983 6.20297 19.4828 6.166 19.4644 6.13046C19.4519 6.10728 19.4314 6.08855 19.4162 6.06626C19.3966 6.037 19.3752 6.00901 19.352 5.98246C19.3298 5.96343 19.3066 5.94558 19.2825 5.92896C19.2575 5.90729 19.2313 5.88704 19.204 5.86834L10.6192 0.927299C10.5107 0.864698 10.3877 0.831741 10.2625 0.831741C10.1373 0.831741 10.0143 0.864698 9.90592 0.927299L1.32285 5.86834C1.29499 5.88656 1.26874 5.90714 1.24439 5.92985C1.21981 5.94618 1.19628 5.96404 1.17396 5.98335C1.1509 6.00943 1.12975 6.03714 1.11066 6.06626C1.09461 6.08855 1.075 6.10728 1.06162 6.13046C1.04335 6.16595 1.02814 6.20293 1.01615 6.24101C1.00642 6.26042 0.997784 6.28036 0.990298 6.30075C0.973896 6.36181 0.965505 6.42475 0.965335 6.48797V35.8828C0.964993 36.0083 0.997787 36.1317 1.06041 36.2405C1.12302 36.3493 1.21325 36.4397 1.32196 36.5024L18.4845 46.3845C18.5227 46.4037 18.5623 46.4198 18.6031 46.4326C18.6218 46.4398 18.6397 46.4505 18.6593 46.4558C18.779 46.4879 18.9051 46.4879 19.0248 46.4558C19.0427 46.4514 19.0578 46.4416 19.0739 46.4362C19.1169 46.4227 19.1587 46.4054 19.1987 46.3845L36.3666 36.5024C36.4753 36.4397 36.5655 36.3493 36.6282 36.2405C36.6908 36.1317 36.7236 36.0083 36.7232 35.8828V26.4982L44.947 21.7631C45.0564 21.7 45.147 21.6089 45.2097 21.4993C45.2723 21.3896 45.3048 21.2653 45.3036 21.139V11.3452C45.3041 11.2825 45.2969 11.2199 45.2822 11.1589ZM10.2617 2.37252L17.4111 6.48708L10.2608 10.6043L3.11222 6.48797L10.2617 2.37252ZM18.1297 7.7219V25.6708L13.9813 28.0593L10.9776 29.789V11.8427L15.126 9.4542L18.1297 7.7219ZM18.1297 44.5238L2.3954 35.4691V7.72546L5.39907 9.45331L9.54662 11.8427V31.0273C9.54843 31.0543 9.55201 31.0811 9.55732 31.1076C9.55945 31.1429 9.56422 31.1781 9.57159 31.2128C9.58065 31.2404 9.59198 31.2673 9.60546 31.293C9.61539 31.3237 9.62792 31.3536 9.64291 31.3822C9.65939 31.4064 9.67725 31.4296 9.6964 31.4517C9.71424 31.478 9.7339 31.5031 9.75525 31.5266C9.77575 31.5462 9.80161 31.5605 9.8239 31.5783C9.84824 31.5995 9.87385 31.6191 9.90057 31.6372L18.1199 36.2893L18.1297 44.5238ZM18.8429 35.0581L11.7051 31.0175L19.2022 26.7015L27.4278 21.9664L34.5719 26.0792L29.3295 29.0712L18.8429 35.0581ZM35.2941 35.4655L19.5589 44.5283V36.2982L31.2134 29.6472L35.2941 27.3158V35.4655ZM35.2941 24.8443L32.2904 23.121L28.1419 20.7325V12.5818L31.1456 14.3114L35.2941 16.7017V24.8443ZM36.0073 15.458L28.857 11.3416L36.0073 7.22619L43.1558 11.3407L36.0073 15.458ZM36.7206 24.8443V16.7017L40.8779 14.3114L43.8807 12.5818V20.7298L36.7206 24.8443Z" fill="#F53017"/>
</g>
<defs>
<clipPath id="clip0_201_6731">
<rect width="45.648" height="45.648" fill="white" transform="translate(0.312012 0.831909)"/>
</clipPath>
</defs>
</svg>
