<svg width="58" height="47" viewBox="0 0 58 47" fill="none" xmlns="http://www.w3.org/2000/svg">
<g clip-path="url(#clip0_201_6607)">
<path d="M28.9441 9.85268C44.2254 9.85268 55.9762 16.2898 55.9762 23.3599C55.9762 30.4299 44.2165 36.867 28.9441 36.867C13.6627 36.867 1.91189 30.4299 1.91189 23.3599C1.91189 16.2898 13.6716 9.85268 28.9441 9.85268ZM28.9441 8.35486C13.1902 8.35486 0.414062 15.0683 0.414062 23.3599C0.414062 31.6514 13.1902 38.3648 28.9441 38.3648C44.698 38.3648 57.474 31.6514 57.474 23.3599C57.474 15.0683 44.698 8.35486 28.9441 8.35486ZM19.868 22.1562C19.1636 25.7671 16.6762 25.3926 13.6181 25.3926L14.8395 19.0982C18.2275 19.0982 20.5277 18.7326 19.868 22.1562ZM9.09788 31.7673H12.3699L13.1456 27.7731C16.8099 27.7731 19.0834 28.0406 21.1875 26.0702C23.5144 23.9305 24.1207 20.1235 22.4624 18.2155C21.5976 17.217 20.2067 16.7266 18.3166 16.7266H12.0133L9.09788 31.7673ZM25.6542 12.7235H28.9084L28.1327 16.7177C30.9412 16.7177 33.5445 16.5127 34.8016 17.6717C36.1211 18.8842 35.4881 20.4355 34.0616 27.7553H30.7628C32.1358 20.6762 32.3944 20.0878 31.8951 19.5529C31.4137 19.0358 30.3171 19.1428 27.6691 19.1428L25.993 27.7553H22.7388L25.6542 12.7235ZM45.438 22.1562C44.7247 25.8206 42.1659 25.3926 39.1881 25.3926L40.4095 19.0982C43.8153 19.0982 46.0977 18.7326 45.438 22.1562ZM34.6679 31.7673H37.9488L38.7245 27.7731C42.576 27.7731 44.7069 27.996 46.7664 26.0702C49.0934 23.9305 49.6996 20.1235 48.0413 18.2155C47.1765 17.217 45.7857 16.7266 43.8956 16.7266H37.5922L34.6679 31.7673Z" fill="#787CB5"/>
</g>
<defs>
<clipPath id="clip0_201_6607">
<rect width="57.06" height="45.648" fill="white" transform="translate(0.414062 0.535889)"/>
</clipPath>
</defs>
</svg>
