<svg width="27" height="30" viewBox="0 0 27 30" fill="none" xmlns="http://www.w3.org/2000/svg">
<g clip-path="url(#clip0_201_5889)">
<path d="M13.3198 13.1077C12.9532 13.1078 12.5948 13.2166 12.2901 13.4204C11.9853 13.6241 11.7477 13.9137 11.6075 14.2524C11.4672 14.5912 11.4306 14.9639 11.5022 15.3235C11.5738 15.6831 11.7503 16.0133 12.0096 16.2725C12.2689 16.5318 12.5992 16.7083 12.9588 16.7798C13.3184 16.8513 13.6911 16.8145 14.0298 16.6742C14.3685 16.5339 14.658 16.2963 14.8617 15.9914C15.0654 15.6866 15.1741 15.3282 15.1741 14.9615C15.1731 14.4701 14.9774 13.9991 14.6299 13.6516C14.2824 13.3042 13.8113 13.1086 13.3198 13.1077ZM25.7271 7.54633C25.097 6.41666 23.3803 4.60631 18.9911 5.12045C17.7454 2.15146 15.8477 0.131104 13.3198 0.131104C10.792 0.131104 8.89443 2.15146 7.64856 5.12045C3.25935 4.61355 1.54279 6.41666 0.912674 7.54633C-0.0361801 9.24806 0.0434757 11.7826 2.36843 14.9615C0.0434757 18.1405 -0.0361801 20.675 0.912674 22.3768C2.60027 25.4109 6.8012 24.904 7.64856 24.8026C8.89443 27.7716 10.792 29.792 13.3198 29.792C15.8477 29.792 17.7454 27.7716 18.9911 24.8026C19.8386 24.904 24.0395 25.4109 25.7271 22.3768C26.676 20.675 26.5963 18.1405 24.2713 14.9615C26.5963 11.7826 26.676 9.24806 25.7271 7.54633ZM4.01257 20.523C3.78085 20.103 4.00533 19.0892 4.88177 17.7278C5.28016 18.1043 5.70028 18.4736 6.14936 18.8357C6.2435 19.6323 6.38109 20.4071 6.5404 21.1602C5.11361 21.2109 4.22993 20.9068 4.01257 20.523ZM6.14936 11.0874C5.70028 11.4495 5.28016 11.8188 4.88177 12.1953C4.00533 10.8339 3.78085 9.82013 4.01257 9.40013C4.20821 9.0453 4.96143 8.73392 6.20729 8.73392C6.30867 8.73392 6.43178 8.75564 6.5404 8.75564C6.37384 9.53048 6.2435 10.3053 6.14936 11.0874ZM13.3198 3.83871C13.8703 3.83871 14.6092 4.62079 15.2827 5.99666C14.6309 6.2139 13.979 6.46011 13.3198 6.74253C12.6608 6.46011 12.0089 6.2139 11.357 5.99666C12.0306 4.62079 12.7694 3.83871 13.3198 3.83871ZM13.3198 26.0844C12.7694 26.0844 12.0306 25.3023 11.357 23.9264C12.0089 23.7092 12.6608 23.463 13.3198 23.1806C13.979 23.463 14.6309 23.7092 15.2827 23.9264C14.6092 25.3023 13.8703 26.0844 13.3198 26.0844ZM13.3198 19.5961C12.4032 19.5961 11.5072 19.3243 10.7451 18.815C9.98291 18.3058 9.38889 17.5819 9.03812 16.7351C8.68734 15.8883 8.59556 14.9564 8.77438 14.0574C8.95321 13.1584 9.3946 12.3326 10.0428 11.6845C10.6909 11.0363 11.5167 10.5949 12.4157 10.4161C13.3147 10.2373 14.2466 10.329 15.0934 10.6798C15.9402 11.0306 16.6641 11.6246 17.1733 12.3868C17.6826 13.1489 17.9544 14.0449 17.9544 14.9615C17.9544 16.1907 17.4661 17.3695 16.5969 18.2386C15.7278 19.1078 14.549 19.5961 13.3198 19.5961ZM22.6271 20.523C22.4171 20.9068 21.5262 21.2109 20.0993 21.1602C20.2587 20.4071 20.3963 19.6323 20.4905 18.8357C20.9395 18.4736 21.3596 18.1043 21.7579 17.7278C22.6344 19.0892 22.8589 20.103 22.6271 20.523ZM21.7579 12.1953C21.3596 11.8188 20.9395 11.4495 20.4904 11.0874C20.3963 10.3053 20.266 9.53048 20.0993 8.75564C20.2079 8.75564 20.3311 8.73392 20.4325 8.73392C21.6783 8.73392 22.4316 9.0453 22.6271 9.40013C22.8589 9.82013 22.6344 10.8339 21.7579 12.1953Z" fill="#4AD5FD"/>
</g>
<defs>
<clipPath id="clip0_201_5889">
<rect width="25.9533" height="29.6609" fill="white" transform="translate(0.343262 0.131104)"/>
</clipPath>
</defs>
</svg>
