<svg width="47" height="46" viewBox="0 0 47 46" fill="none" xmlns="http://www.w3.org/2000/svg">
<circle cx="23.5" cy="22.5" r="21.5" fill="white"/>
<path d="M6.13315 15.1031L15.1825 39.8885C8.85241 36.8215 4.49267 30.331 4.49267 22.824C4.49267 20.0691 5.0811 17.4657 6.13315 15.1031ZM36.259 21.87C36.259 19.5252 35.421 17.9026 34.6988 16.6366C33.7359 15.0763 32.8354 13.7479 32.8354 12.1877C32.8354 10.4402 34.1549 8.81756 36.0183 8.81756C36.0986 8.81756 36.1788 8.82647 36.268 8.83539C32.8889 5.74167 28.3955 3.85156 23.4562 3.85156C16.8319 3.85156 11.0011 7.24841 7.60423 12.4016C8.05001 12.4195 8.46904 12.4284 8.82567 12.4284C10.8049 12.4284 13.8808 12.1877 13.8808 12.1877C14.9061 12.1253 15.022 13.632 14.0056 13.7479C14.0056 13.7479 12.9803 13.8638 11.8391 13.9262L18.7488 34.4678L22.9034 22.0216L19.9524 13.9262C18.9271 13.8638 17.9642 13.7479 17.9642 13.7479C16.9389 13.6855 17.0637 12.1253 18.0801 12.1877C18.0801 12.1877 21.2095 12.4284 23.0728 12.4284C25.0521 12.4284 28.128 12.1877 28.128 12.1877C29.1533 12.1253 29.2692 13.632 28.2528 13.7479C28.2528 13.7479 27.2275 13.8638 26.0863 13.9262L32.9424 34.3162L34.8325 27.9951C35.6349 25.3739 36.259 23.4927 36.259 21.87ZM23.7861 24.4823L18.0979 41.0208C19.8008 41.5201 21.5928 41.7964 23.4562 41.7964C25.6673 41.7964 27.7803 41.4131 29.7506 40.7177C29.6971 40.6374 29.6526 40.5483 29.6169 40.4591L23.7861 24.4823ZM40.1017 13.7211C40.1819 14.3274 40.2265 14.9693 40.2265 15.6737C40.2265 17.5994 39.8699 19.757 38.7822 22.4674L32.987 39.2198C38.6306 35.93 42.4197 29.8228 42.4197 22.824C42.4197 19.5252 41.5817 16.4226 40.1017 13.7211ZM45.5669 22.824C45.5669 35.0206 35.6439 44.9347 23.4562 44.9347C11.2596 44.9347 1.34546 35.0117 1.34546 22.824C1.34546 10.6274 11.2596 0.713257 23.4562 0.713257C35.6439 0.713257 45.5669 10.6274 45.5669 22.824ZM44.5506 22.824C44.5506 11.1891 35.0822 1.72964 23.4562 1.72964C11.8213 1.72964 2.36184 11.1891 2.36184 22.824C2.36184 34.4589 11.8302 43.9184 23.4562 43.9184C35.0911 43.9184 44.5506 34.4589 44.5506 22.824Z" fill="#00A1D3"/>
</svg>
