<svg xmlns="http://www.w3.org/2000/svg" xmlns:xlink="http://www.w3.org/1999/xlink" width="500" zoomAndPan="magnify" viewBox="0 0 375 374.999991" height="500" preserveAspectRatio="xMidYMid meet" version="1.2"><defs><clipPath id="929ef6bab8"><path d="M 26.722656 32.261719 L 349 32.261719 L 349 342.738281 L 26.722656 342.738281 Z M 26.722656 32.261719 "/></clipPath><clipPath id="1996471ffc"><path d="M 43.972656 32.261719 L 331.027344 32.261719 C 335.601562 32.261719 339.988281 34.078125 343.226562 37.3125 C 346.460938 40.546875 348.277344 44.933594 348.277344 49.511719 L 348.277344 325.488281 C 348.277344 330.066406 346.460938 334.453125 343.226562 337.6875 C 339.988281 340.921875 335.601562 342.738281 331.027344 342.738281 L 43.972656 342.738281 C 39.398438 342.738281 35.011719 340.921875 31.773438 337.6875 C 28.539062 334.453125 26.722656 330.066406 26.722656 325.488281 L 26.722656 49.511719 C 26.722656 44.933594 28.539062 40.546875 31.773438 37.3125 C 35.011719 34.078125 39.398438 32.261719 43.972656 32.261719 Z M 43.972656 32.261719 "/></clipPath><clipPath id="1f55717bb6"><path d="M 0.722656 0.261719 L 322.480469 0.261719 L 322.480469 310.738281 L 0.722656 310.738281 Z M 0.722656 0.261719 "/></clipPath><clipPath id="a505c915de"><path d="M 17.972656 0.261719 L 305.027344 0.261719 C 309.601562 0.261719 313.988281 2.078125 317.226562 5.3125 C 320.460938 8.546875 322.277344 12.933594 322.277344 17.511719 L 322.277344 293.488281 C 322.277344 298.066406 320.460938 302.453125 317.226562 305.6875 C 313.988281 308.921875 309.601562 310.738281 305.027344 310.738281 L 17.972656 310.738281 C 13.398438 310.738281 9.011719 308.921875 5.773438 305.6875 C 2.539062 302.453125 0.722656 298.066406 0.722656 293.488281 L 0.722656 17.511719 C 0.722656 12.933594 2.539062 8.546875 5.773438 5.3125 C 9.011719 2.078125 13.398438 0.261719 17.972656 0.261719 Z M 17.972656 0.261719 "/></clipPath><clipPath id="9cf76dfdf1"><rect x="0" width="323" y="0" height="311"/></clipPath></defs><g id="08d9a0674c"><g clip-rule="nonzero" clip-path="url(#929ef6bab8)"><g clip-rule="nonzero" clip-path="url(#1996471ffc)"><g transform="matrix(1,0,0,1,26,32)"><g clip-path="url(#9cf76dfdf1)"><g clip-rule="nonzero" clip-path="url(#1f55717bb6)"><g clip-rule="nonzero" clip-path="url(#a505c915de)"><path style=" stroke:none;fill-rule:nonzero;fill:#1c6b48;fill-opacity:1;" d="M 0.722656 0.261719 L 322.117188 0.261719 L 322.117188 310.738281 L 0.722656 310.738281 Z M 0.722656 0.261719 "/></g></g></g></g></g></g><g style="fill:#000000;fill-opacity:1;"><g transform="translate(97.495332, 298.12498)"><path style="stroke:none" d="M 58.121094 -215.984375 L 58.121094 -124.789062 L 53.996094 -124.789062 L 53.996094 -128.914062 L 125.992188 -128.914062 L 125.992188 -124.789062 L 121.867188 -124.789062 L 121.867188 -220.109375 L 157.113281 -220.109375 L 157.113281 4.125 L 121.867188 4.125 L 121.867188 -100.191406 L 125.992188 -100.191406 L 125.992188 -96.066406 L 53.996094 -96.066406 L 53.996094 -100.191406 L 58.121094 -100.191406 L 58.121094 4.125 L 22.875 4.125 L 22.875 -220.109375 L 58.121094 -220.109375 Z M 49.871094 -215.984375 L 53.996094 -215.984375 L 53.996094 -211.859375 L 26.996094 -211.859375 L 26.996094 -215.984375 L 31.121094 -215.984375 L 31.121094 0 L 26.996094 0 L 26.996094 -4.125 L 53.996094 -4.125 L 53.996094 0 L 49.871094 0 L 49.871094 -104.316406 L 130.117188 -104.316406 L 130.117188 0 L 125.992188 0 L 125.992188 -4.125 L 152.988281 -4.125 L 152.988281 0 L 148.863281 0 L 148.863281 -215.984375 L 152.988281 -215.984375 L 152.988281 -211.859375 L 125.992188 -211.859375 L 125.992188 -215.984375 L 130.117188 -215.984375 L 130.117188 -120.664062 L 49.871094 -120.664062 Z M 49.871094 -215.984375 "/></g></g><g style="fill:#ffffff;fill-opacity:1;"><g transform="translate(97.495332, 298.12498)"><path style="stroke:none" d="M 54 -215.984375 L 54 -124.796875 L 126 -124.796875 L 126 -215.984375 L 152.984375 -215.984375 L 152.984375 0 L 126 0 L 126 -100.1875 L 54 -100.1875 L 54 0 L 27 0 L 27 -215.984375 Z M 54 -215.984375 "/></g></g></g></svg>